<svg id="Layer_1" data-name="Layer 1" xmlns="http://www.w3.org/2000/svg" viewBox="0 0 687.02 826.28"><defs><style>.cls-1{fill:#fff;}</style></defs><title>logo_3</title><path class="cls-1" d="M380,897a4.51,4.51,0,0,1-4.51-4.51v-125A4.51,4.51,0,0,1,380,763a4.44,4.44,0,0,1,2.22.59l110,62.5a4.5,4.5,0,0,1,0,7.83l-110,62.5A4.44,4.44,0,0,1,380,897Z" transform="translate(-156.49 -71.23)"/><path d="M380,763.5a3.94,3.94,0,0,1,2,.53l110,62.5a4,4,0,0,1,0,7L382,896a3.94,3.94,0,0,1-2,.53,4,4,0,0,1-4-4v-125a4,4,0,0,1,4-4m0-1a5,5,0,0,0-5,5v125a5,5,0,0,0,7.47,4.35l110-62.5a5,5,0,0,0,0-8.69l-110-62.5a5,5,0,0,0-2.46-.66Z" transform="translate(-156.49 -71.23)"/><path class="cls-1" d="M620,897a4.44,4.44,0,0,1-2.22-.59l-110-62.5a4.5,4.5,0,0,1,0-7.83l110-62.5A4.44,4.44,0,0,1,620,763a4.51,4.51,0,0,1,4.51,4.51v125a4.44,4.44,0,0,1-1.37,3.24A4.58,4.58,0,0,1,620,897Z" transform="translate(-156.49 -71.23)"/><path d="M620,763.49a4,4,0,0,1,4,4v125a4,4,0,0,1-4,4,3.94,3.94,0,0,1-2-.53l-110-62.5a4,4,0,0,1,0-7L618,764a3.94,3.94,0,0,1,2-.53m0-1a5,5,0,0,0-2.46.66l-110,62.5a5,5,0,0,0,0,8.69l110,62.5A5,5,0,0,0,625,892.5v-125a5,5,0,0,0-5-5Z" transform="translate(-156.49 -71.23)"/><path class="cls-1" d="M511.44,278.77V107c0-15.44-24-15.47-24,0V278.77c0,15.44,24,15.47,24,0Z" transform="translate(-156.49 -71.23)"/><rect class="cls-1" x="307.16" width="71.56" height="71.56" rx="20" ry="20"/><rect class="cls-1" x="304.29" y="99.5" width="80" height="25" rx="8.61" ry="8.61"/><rect class="cls-1" x="288.51" y="144.5" width="110" height="25" rx="8.61" ry="8.61"/><path class="cls-1" d="M181.49,738a24.53,24.53,0,0,1-24.5-24.5V286.45a24.53,24.53,0,0,1,24.5-24.5h637a24.53,24.53,0,0,1,24.5,24.5V713.55a24.53,24.53,0,0,1-24.5,24.5ZM304.85,551.5a13.23,13.23,0,0,0-3.21.4,12.44,12.44,0,0,0-7.76,5.76,11,11,0,0,0-1.08,8.59l22.26,77.59a11.75,11.75,0,0,0,6.22,7.27c.27.14.54.27.83.39s.49.19.74.28l.25.09a12.4,12.4,0,0,0,3.3.61l.6,0H673.18A12.59,12.59,0,0,0,685,644.65l29.41-77.11a11.4,11.4,0,0,0-.34-8.95,12.19,12.19,0,0,0-7.14-6.38,12.89,12.89,0,0,0-4.24-.71A12.55,12.55,0,0,0,691,559.35L665,627.5H336.26l-19.32-67.33A12.43,12.43,0,0,0,304.85,551.5ZM600,399.5A50.5,50.5,0,1,0,650.5,450,50.56,50.56,0,0,0,600,399.5Zm-200,0A50.5,50.5,0,1,0,450.5,450,50.56,50.56,0,0,0,400,399.5Z" transform="translate(-156.49 -71.23)"/><path d="M818.51,262.45a24,24,0,0,1,24,24V713.55a24,24,0,0,1-24,24h-637a24,24,0,0,1-24-24V286.45a24,24,0,0,1,24-24h637M600,501h0a51,51,0,1,0-51-51,51.06,51.06,0,0,0,51,51m-200,0h0a51,51,0,1,0-51-51,51.06,51.06,0,0,0,51,51M664.62,627h-328l-19.21-67a12.93,12.93,0,0,0-12.57-9,13.73,13.73,0,0,0-3.33.41,12.94,12.94,0,0,0-8.07,6,11.49,11.49,0,0,0-1.13,9L314.58,644a12.4,12.4,0,0,0,6.46,7.57c.29.15.58.29.87.41s.5.2.75.28l.08,0,0,0,.15.05a12.87,12.87,0,0,0,3.44.63h.08l.32,0H673.27a13,13,0,0,0,12.23-8.16l29.41-77.11a11.9,11.9,0,0,0-.35-9.34,12.68,12.68,0,0,0-7.43-6.64,13.39,13.39,0,0,0-4.4-.74,13.05,13.05,0,0,0-12.24,8.17L664.62,627M818.51,261.45h-637a25,25,0,0,0-25,25V713.55a25,25,0,0,0,25,25h637a25,25,0,0,0,25-25V286.45a25,25,0,0,0-25-25ZM600,500a50,50,0,0,1-50-50h0a50,50,0,0,1,50-50h0a50,50,0,0,1,50,50h0a50,50,0,0,1-50,50Zm-200,0a50,50,0,0,1-50-50h0a50,50,0,0,1,50-50h0a50,50,0,0,1,50,50h0a50,50,0,0,1-50,50ZM335.88,628H665.31l26.12-68.47A12,12,0,0,1,702.74,552a12.4,12.4,0,0,1,4.07.69A11.34,11.34,0,0,1,714,567.36l-29.41,77.11a12,12,0,0,1-11.3,7.52H326.79l-.37,0a11.88,11.88,0,0,1-3.18-.58l-.19-.07c-.25-.09-.51-.18-.75-.28s-.54-.24-.8-.38a11.34,11.34,0,0,1-6-7l-22.26-77.59c-1.71-6,2.11-12.13,8.49-13.73a12.71,12.71,0,0,1,3.09-.38,12,12,0,0,1,11.61,8.31L335.88,628Z" transform="translate(-156.49 -71.23)"/></svg>